<?xml version="1.0" encoding="UTF-8"?>
<svg id="Layer_2" data-name="Layer 2" xmlns="http://www.w3.org/2000/svg" viewBox="0 0 183.18 128.44">
  <defs>
    <style>
      .cls-1 {
        font-family: SFPro-Bold, 'SF Pro';
        font-size: 59.97px;
        font-variation-settings: 'wdth' 100, 'opsz' 28, 'wght' 700;
        font-weight: 700;
      }

      .cls-2 {
        fill: #fc0;
      }

      .cls-3 {
        fill: #e2001a;
      }

      .cls-4 {
        fill: #c6c7c8;
      }

      .cls-5 {
        fill: #1a171b;
      }
    </style>
  </defs>
  <g id="Layer_1-2" data-name="Layer 1">
    <g>
      <text class="cls-1" transform="translate(0 51.11)"><tspan x="0" y="0">Mensa</tspan></text>
      <g>
        <path id="Path_940" data-name="Path 940" class="cls-4" d="m47.5,55.17L3.34,128.44h32.56l29.1-43.94-17.51-29.32Z"/>
        <path id="Path_941" data-name="Path 941" class="cls-3" d="m42.87,128.44h48.55l-6.47-10.75-42.08,10.75Z"/>
        <path id="Path_942" data-name="Path 942" class="cls-2" d="m41.7,126.9l41-12.83-6.47-10.79-34.54,23.62Z"/>
        <path id="Path_943" data-name="Path 943" class="cls-3" d="m40.3,125.29l33.82-25.58-6.47-10.79-27.35,36.37Z"/>
      </g>
      <path id="Path_944" data-name="Path 944" class="cls-5" d="m129.66,69.44l-21.66,24.9v-24.9h-12v58h12v-27h.2l21.53,27h15.72s-25.66-30.64-25.66-30.64l24.66-27.36h-14.8Z"/>
      <path id="Path_945" data-name="Path 945" class="cls-5" d="m153.01,114.91c0-6.5,7.47-7.47,12.48-7.47h4.87c.2,3.14-.62,6.27-2.34,8.9-1.85,2.47-4.78,3.9-7.87,3.82-4.03,0-7.15-1.62-7.15-5.26m-5.41-19.09c3.76-2.88,8.31-4.52,13.04-4.7,6.52,0,9.78,2.35,9.78,9.33h-6.51c-4.95-.21-9.89.66-14.48,2.54-4.8,2.16-7.77,7.07-7.43,12.33.4,7.63,6.9,13.48,14.53,13.09.2-.01.4-.03.6-.04,5.34-.06,10.27-2.87,13.04-7.43h0c.02,2.18.17,4.36.45,6.52h9.91c0-3.39-.39-6.52-.52-9.65s0-6.52,0-10.84v-5.52c0-13.04-5.48-18.26-18.65-18.26-5.19.08-10.31,1.19-15.06,3.26l1.3,9.38Z"/>
    </g>
  </g>
</svg>