<?xml version="1.0" encoding="utf-8"?>
<!-- Generator: Adobe Illustrator 25.2.0, SVG Export Plug-In . SVG Version: 6.00 Build 0)  -->
<svg version="1.1" id="Ebene_1" xmlns="http://www.w3.org/2000/svg" xmlns:xlink="http://www.w3.org/1999/xlink" x="0px" y="0px"
	 viewBox="0 0 12.545455 25.295454" style="enable-background:new 0 0 12.545455 25.295454;" xml:space="preserve">
<style type="text/css">
	.st0{fill:#EB7328;}
	.st1{fill:#E54121;}
	.st2{fill:#99BF1F;stroke:#000000;stroke-miterlimit:10;}
	.st3{fill:none;stroke:#000000;stroke-linejoin:round;stroke-miterlimit:10;}
</style>
<g>
	<path class="st0" d="M6.2245989,7.48877c0,0,3.4844694,0.594542,3.0753784,3.969542S6.2727275,23.181818,6.2727275,23.181818
		L6.2245989,7.48877z"/>
	<path class="st1" d="M6.2534761,7.4598932c0,0-3.547437-0.0583997-3.0607717,3.9984188
		C3.5976372,14.8338137,6.306818,22.875,6.306818,22.875L6.2534761,7.4598932z"/>
	<path class="st2" d="M4.9427299,7.0595999c0,0-4.5-1.840909-3.9886363-6.238636c0,0,5.5959091,0,5.508182,4.909091
		c0,0-0.0877271-4.5,5.3327274-4.909091c0,0-0.204546,5.727273-4.2954545,6.238636H4.9427299z"/>
	<path class="st3" d="M6.3173819,7.0595999c0,0-3.0536363,0.3078027-3.1559088,2.4555302
		c-0.1022727,2.147727,3.1559088,15.136363,3.1559088,15.136363l3.1850004-13.704545
		C9.5023823,10.9469481,10.1892004,7.9790697,6.3173819,7.0595999z"/>
</g>
</svg>
