<?xml version="1.0" encoding="utf-8"?>
<!-- Generator: Adobe Illustrator 25.0.0, SVG Export Plug-In . SVG Version: 6.00 Build 0)  -->
<svg version="1.1" id="vegetarisch" xmlns="http://www.w3.org/2000/svg" xmlns:xlink="http://www.w3.org/1999/xlink" x="0px"
	 y="0px" viewBox="0 0 117.6 160.3" style="enable-background:new 0 0 117.6 160.3;" xml:space="preserve">
<style type="text/css">
	.st0{fill:#00205B;}
	.st1{fill:#78BE20;}
</style>
<path class="st0" d="M83.4,7.8L83.2,7c-8.6,0-17.4-1.5-26.1-4.5c-6.6,6.6-13.7,11.8-21.6,15.6l0.2,0.7c2.6-0.2,5.2-0.2,7.9,0
	c-0.9,2.4-2.2,6.2-2.6,10.7c0,2.4-0.9,3.6,3.6,6c-1.3-7.9-0.9-13.5-0.4-16.7c1.3,0,2.6,0.2,4.1,0.4c-0.2,2.1-0.2,4.3,0.2,6.6
	c3.2-4.1,7.5-6.2,12.2-7.3c4.7-1.1,9.6-1.1,14.2,1.3c-0.6-2.2-1.5-4.1-2.8-6.2C75.9,11.3,79.5,9.4,83.4,7.8"/>
<path class="st1" d="M55.3,58.2C44.2,52,31.7,44.1,31.7,44.1c-15.9-9.7-21.7-21-25.1-25.5c-0.4-0.4-1.1-0.6-2.1-0.6
	c-2.6,9-4.9,19.3,14.6,35.4C24.6,58,32,64.4,36.2,68.3c6.4,6,9.7,10.3,13.3,16.3c1.1,1.9,2.1,3.7,3.2,5.8
	c5.6,11.1,8.2,24.2,8.8,37.9c1.7,20.4-3.4,24.2,5.1,28.9c1.7,0.9,3,1.3,4.3,1.1c7.3-16.1,18.7-61.3,9-80.4
	C75.7,70.5,62.2,62.1,55.3,58.2 M70.1,45.4c5.4-5.1,7.5-13.5,4.9-21c-2.6-7.3-25.1-2.1-24.4,5.6l0,0c2.8-5.8,15.6-7.7,17.6-0.9
	c1.9,6,1.9,12.4,0.2,17.2C69.2,46.4,69.7,46,70.1,45.4 M108.7,7.2c-0.9,0.2-1.7,0.6-1.9,1.1c-2.1,15.9-5.1,17.4-20.6,36
	c-15,18.2-1.7,26.4-1.1,38.8c1.7-6.7,4.7-12.6,8.1-19.3c5.2-9.7,8.1-12.9,12-18.7C119.2,24.4,114,15.3,108.7,7.2"/>
</svg>
