<?xml version="1.0" encoding="utf-8"?>
<!-- Generator: Adobe Illustrator 25.2.0, SVG Export Plug-In . SVG Version: 6.00 Build 0)  -->
<svg version="1.1" xmlns="http://www.w3.org/2000/svg" xmlns:xlink="http://www.w3.org/1999/xlink" x="0px" y="0px"
	 viewBox="0 0 31.943182 31.977272" style="enable-background:new 0 0 31.943182 31.977272;" xml:space="preserve">
<style type="text/css">
	.st0{fill:none;stroke:#7BAA20;stroke-miterlimit:10;}
	.st1{fill:#FBDDC5;stroke:#000000;stroke-width:1.25;stroke-linejoin:round;stroke-miterlimit:10;}
	.st2{fill:#FBDDC5;stroke:#000000;stroke-width:1.25;stroke-linecap:round;stroke-linejoin:round;stroke-miterlimit:10;}
	.st3{fill:#EF9CAD;}
</style>
<g id="Ebene_2">
</g>
<g id="Ebene_3">
</g>
<g id="Ebene_4">
	<circle class="st0" cx="16.005682" cy="15.988636" r="15.2194605"/>
	<g>
		<path class="st1" d="M10.0653505,10.0809784c0,0,6.5227633-4.1436067,11.7015696,0
			c4.9608116-4.125567,9.7072906,5.1658535,4.005003,5.328392C27.6905231,28.4947968,4.8181968,29.9229851,6.547914,15.2004137
			C0.8630412,17.1143246,4.0351491,5.0606394,10.0653505,10.0809784z"/>
		<path class="st2" d="M8.0395288,12.5416508c0,0-1.4259558,1.5134411-1.5304341,3.1850939"/>
		<path class="st2" d="M24.3475761,12.0063572c0,0,1.3039932,1.5767384,1.4084702,3.2483912"/>
		<circle cx="11.9214172" cy="15.245183" r="1.0760958"/>
		<circle cx="19.5599422" cy="15.245183" r="1.0760958"/>
		<ellipse class="st3" cx="15.971591" cy="19.2173519" rx="3.6567407" ry="3.412957"/>
		<ellipse cx="14.5449829" cy="19.2757645" rx="0.4875654" ry="1.149261"/>
		<ellipse cx="17.0756798" cy="19.2173519" rx="0.4875654" ry="1.149261"/>
	</g>
</g>
</svg>
