<?xml version="1.0" encoding="utf-8"?>
<!-- Generator: Adobe Illustrator 25.2.0, SVG Export Plug-In . SVG Version: 6.00 Build 0)  -->
<svg version="1.1" id="Ebene_1" xmlns="http://www.w3.org/2000/svg" xmlns:xlink="http://www.w3.org/1999/xlink" x="0px" y="0px"
	 viewBox="0 0 26.454546 20.181818" style="enable-background:new 0 0 26.454546 20.181818;" xml:space="preserve">
<style type="text/css">
	.st0{fill:#FBDDC5;stroke:#000000;stroke-width:1.25;stroke-linejoin:round;stroke-miterlimit:10;}
	.st1{fill:#FBDDC5;stroke:#000000;stroke-width:1.25;stroke-linecap:round;stroke-linejoin:round;stroke-miterlimit:10;}
	.st2{fill:#EF9CAD;}
</style>
<path class="st0" d="M7.3892031,3.5183365c0,0,6.385066-4.0561342,11.454545,0
	c4.8560867-4.0384755,9.502367,5.0568018,3.920454,5.215909C24.6423016,21.543438,2.2528191,22.9414768,3.9460213,8.5297003
	C-1.6188416,10.4032068,1.4863018-1.3960224,7.3892031,3.5183365z"/>
<path class="st1" d="M5.406147,5.9270644c0,0-1.395853,1.4814916-1.4981256,3.1178555"/>
<path class="st1" d="M21.3699265,5.40307c0,0,1.2764645,1.5434542,1.3787365,3.1798177"/>
<circle cx="9.2060871" cy="8.5735245" r="1.0533791"/>
<circle cx="16.6833591" cy="8.5735245" r="1.0533791"/>
<ellipse class="st2" cx="13.1707602" cy="12.4618397" rx="3.5795455" ry="3.340909"/>
<ellipse cx="11.7742691" cy="12.519021" rx="0.4772727" ry="1.125"/>
<ellipse cx="14.2515421" cy="12.4618397" rx="0.4772727" ry="1.125"/>
</svg>
