<?xml version="1.0" encoding="utf-8"?>
<!-- Generator: Adobe Illustrator 25.2.0, SVG Export Plug-In . SVG Version: 6.00 Build 0)  -->
<svg version="1.1" xmlns="http://www.w3.org/2000/svg" xmlns:xlink="http://www.w3.org/1999/xlink" x="0px" y="0px"
	 viewBox="0 0 31.943182 31.977272" style="enable-background:new 0 0 31.943182 31.977272;" xml:space="preserve">
<style type="text/css">
	.st0{fill:#C16E15;}
	.st1{fill:#FFFFFF;}
	.st2{fill:none;stroke:#000000;stroke-width:1.5;stroke-linejoin:round;stroke-miterlimit:10;}
	.st3{fill:#EF9CAD;stroke:#000000;stroke-miterlimit:10;}
	.st4{fill:none;stroke:#7BAA20;stroke-miterlimit:10;}
</style>
<g id="Ebene_2">
</g>
<g id="Ebene_3">
</g>
<g id="Ebene_4">
	<g>
		<path class="st0" d="M17.65909,7.6265516c0,0,1.022728-3.469902,2.6590919-3.166769S22.875,4.9674611,22.15909,7.1151881
			l-1.227272,2.9659095c0,0,2.556818-1.636364,4.397728-0.409091l1.53409,0.920454c0,0-1.738636,2.556818-2.9659081,3.068182
			c0,0,1.6363621,5.21591-0.306818,7.875c0,0-0.1022739,6.75-9.000001,5.931818c0,0-5.829545,0-6.238636-5.420454
			c0,0-2.4015126-4.0011101-0.511364-8.386364c0,0-2.0454545-2.045454-2.7613635-3.477273c0,0,1.2272725-1.534091,3.3749995-1.125
			c0,0,1.1518717,0.0575285,1.9430504,0.4746065c0.2637291,0.1390276,0.48738,0.3180056,0.6149311,0.5481215
			c0.5102005,0.920454-3.578382-4.193182,0-5.5227275c0,0,2.2488375-0.9204547,3.1692915,2.863636
			C14.181818,7.4220061,16.022728,7.4220061,17.65909,7.6265516z"/>
		<path class="st1" d="M17.7468185,8.2913246c1.8213634-5.4484668,6.4577274-3.4992065,2.4349995,1.6594877
			C20.181818,9.9508123,19.9140911,9.3310976,17.7468185,8.2913246z"/>
		<path class="st1" d="M14.2319813,8.1193781c-1.8959236-5.4233341-6.2927718-3.1718783-2.4023285,1.9717731
			C11.8296528,10.0911512,12.0647135,9.1591539,14.2319813,8.1193781z"/>
		<path class="st2" d="M19.4984856,4.6194739C18.2414684,5.0613842,17.65909,7.6265516,17.65909,7.6265516
			c-1.6363621-0.2045455-3.477272-0.2045455-3.477272-0.2045455c-0.920454-3.7840908-3.1692915-2.863636-3.1692915-2.863636
			c-3.578382,1.3295455,0.5102005,6.4431815,0,5.5227275c-0.1275511-0.2301159-0.351202-0.4090939-0.6149311-0.5481215
			C9.6064167,9.1158981,8.454545,9.0583696,8.454545,9.0583696c-2.147727-0.409091-3.3749995,1.125-3.3749995,1.125
			c0.715909,1.431819,2.7613635,3.477273,2.7613635,3.477273c-1.8901486,4.3852539,0.511364,8.386364,0.511364,8.386364
			c0.409091,5.420454,6.238636,5.420454,6.238636,5.420454c8.897727,0.818182,9.000001-5.931818,9.000001-5.931818
			c1.9431801-2.65909,0.306818-7.875,0.306818-7.875c1.227272-0.511364,2.9659081-3.068182,2.9659081-3.068182l-1.53409-0.920454
			c-1.84091-1.227273-4.397728,0.409091-4.397728,0.409091l1.227272-2.9659095
			c0.1854935-0.5564761,0.2611313-0.982501,0.2429256-1.3135891C22.4020157,5.801599,21.65909,3.8599031,19.4984856,4.6194739z"/>
		<path class="st3" d="M8.831109,22.7682438c0.347908,1.861536,1.5206881,3.1568375,2.7617273,3.6074142
			c6.5738621,2.3867397,10.0572395-0.9230213,10.0572395-0.9230213c3.6143837-3.706665-0.2512436-5.4669361-1.7387085-5.9830132
			c0.613636-1.27841,0.102272-2.0454559-0.869318-2.2511749c-0.9715919-0.205719-1.380682,1.484129-1.380682,1.484129
			l-0.511364-0.051136c-0.920454-0.0511379-3.221591,0.1534081-3.221591,0.1534081s0.051137-1.636364-1.380681-1.5852261
			c-1.431819,0.051136-1.125,2.1477261-1.125,2.1477261l-0.4590645,0.255682
			C10.9636669,19.6230316,8.4500608,20.7293873,8.831109,22.7682438z"/>
		<circle cx="12.5085192" cy="12.8225708" r="0.9141713"/>
		<circle cx="18.5085182" cy="12.8225708" r="0.9141713"/>
	</g>
	<circle class="st4" cx="16.005682" cy="15.988636" r="15.2194605"/>
</g>
</svg>
