<?xml version="1.0" encoding="utf-8"?>
<!-- Generator: Adobe Illustrator 25.0.0, SVG Export Plug-In . SVG Version: 6.00 Build 0)  -->
<svg version="1.1" id="vegetarisch" xmlns="http://www.w3.org/2000/svg" xmlns:xlink="http://www.w3.org/1999/xlink" x="0px"
	 y="0px" viewBox="0 0 132.7 96.5" style="enable-background:new 0 0 132.7 96.5;" xml:space="preserve">
<style type="text/css">
	.st0{fill:#065EA9;}
	.st1{fill:#FBFCFD;}
	.st2{fill:#F9FBFC;}
</style>
<g>
	<path class="st0" d="M130.9,38c-0.1,0.2-0.3,0.4-0.4,0.5c-1.5,9.4-6.1,17.3-12.2,24.5c-9.4,11-21,18.7-34.2,24.3
		c-12.7,5.4-25.9,8.3-39.8,7.9c-9.6-0.3-18.8-2-27.3-6.9C9.8,84.1,4.5,78.2,2.4,69.9c-1.9-7.3-0.7-14.3,2.2-21.1
		c3.5-8.3,9-15.3,15.7-21.3C34,15,50.3,7.4,68.4,3.7c7.4-1.5,14.8-2.2,22.4-1.7c9.3,0.5,18.3,2.5,26.3,7.6
		c7.3,4.7,12.1,11.2,13.5,19.9c0,0.2,0.2,0.4,0.4,0.5C130.9,32.7,130.9,35.3,130.9,38z M108.8,43.8c0.1,0.1,0.2,0.3,0.3,0.4
		c-1.4,1.8-2.6,3.8-4.1,5.4c-5.4,5.9-12.3,9.8-19.4,13.2c-12.4,5.8-25.5,9.4-38.8,12.1c0.6,0.9,1.5,0.5,2.3,0.5
		c0.5-0.1,1-0.2,1.6-0.2c8.1-0.3,16.1-1.3,24-3.3C85.1,69.2,95,65.1,103.3,58c7.3-6.1,12.6-13.6,15.1-22.9c0.1-0.4,0.1-0.8,0.2-1.5
		c-0.8,0.6-1.4,1-1.9,1.5c-3.6,2.7-7.4,5.1-11.7,6.6c-2.7,1-5.5,1.7-8.4,1.3c-4.7-0.6-7.2-3.5-6.8-8.2c0.1-1.5,0.6-2.9,0.9-4.4
		c0.1-0.4,0.1-0.7,0.1-1c-2.7,2.2-4.4,4.8-5,8.1c-0.9,4.4,2.4,9.6,7.2,10.4c1.8,0.3,3.7,0.2,5.5-0.1
		C102.3,47.3,105.5,45.6,108.8,43.8z M31.9,83.8c0.1-0.3,0.2-0.4,0.2-0.5c5.7-18.1,16.1-33,30.5-45.1c13.9-11.7,30.1-18.7,47.8-22.5
		c0.6-0.1,1.2-0.3,1.9-0.4c-0.8-0.3-1.5-0.3-2.2-0.3c-0.8,0-1.5-0.1-2.3,0c-10.7,0.9-21.1,3.2-31.1,7.1
		c-19.9,7.7-35.2,20.6-45.1,39.8c-0.1,0.3-0.3,0.5-0.5,0.8c-0.5-0.5-1-0.9-1.4-1.2c-4.1-3.6-8.5-6.8-13.7-8.7
		c-2.4-0.8-4.8-1.2-7.6-0.9C19.5,60.2,28.6,69.7,31.9,83.8z M106.9,26.7c0-2.1-1.6-3.6-3.7-3.5c-1.9,0-3.5,1.6-3.5,3.6
		c0,2,1.6,3.7,3.6,3.7C105.3,30.4,107,28.7,106.9,26.7z"/>
	<path class="st1" d="M31.9,83.8c-3.3-14-12.4-23.6-23.6-32c2.8-0.4,5.2,0,7.6,0.9c5.3,1.8,9.6,5.1,13.7,8.7
		c0.4,0.4,0.9,0.8,1.4,1.2c0.2-0.4,0.4-0.6,0.5-0.8c9.9-19.1,25.3-32,45.1-39.8c10-3.9,20.4-6.2,31.1-7.1c0.8-0.1,1.5,0,2.3,0
		c0.7,0,1.4,0,2.2,0.3c-0.6,0.1-1.2,0.3-1.9,0.4c-17.7,3.8-33.9,10.8-47.8,22.5c-14.5,12.1-24.8,27-30.5,45.1
		C32.1,83.4,32.1,83.5,31.9,83.8z"/>
	<path class="st2" d="M108.8,43.8c-3.2,1.7-6.5,3.4-10.2,4c-1.8,0.3-3.7,0.4-5.5,0.1c-4.9-0.8-8.1-6-7.2-10.4c0.6-3.3,2.3-5.9,5-8.1
		c0,0.4,0,0.7-0.1,1c-0.3,1.5-0.8,2.9-0.9,4.4c-0.4,4.7,2.1,7.6,6.8,8.2c3,0.4,5.7-0.3,8.4-1.3c4.3-1.5,8.1-3.9,11.7-6.6
		c0.6-0.4,1.2-0.9,1.9-1.5c-0.1,0.7-0.1,1.1-0.2,1.5c-2.5,9.3-7.9,16.8-15.1,22.9C94.9,65.1,85,69.2,74.5,71.9
		c-7.9,1.9-15.9,3-24,3.3c-0.5,0-1,0.2-1.6,0.2c-0.8,0.1-1.7,0.4-2.3-0.5c13.4-2.7,26.5-6.3,38.8-12.1c7.1-3.4,13.9-7.3,19.4-13.2
		c1.5-1.7,2.7-3.6,4.1-5.4c0-0.1,0.1-0.3,0.1-0.4C109,43.8,108.9,43.8,108.8,43.8z"/>
	<path class="st2" d="M106.9,26.7c0,2-1.6,3.7-3.6,3.7c-2,0-3.7-1.7-3.6-3.7c0-1.9,1.6-3.5,3.5-3.6
		C105.3,23.1,106.9,24.6,106.9,26.7z"/>
	<path class="st0" d="M108.8,43.8c0.1,0,0.3,0,0.4,0c0,0.1-0.1,0.3-0.1,0.4C109,44.1,108.9,43.9,108.8,43.8z"/>
</g>
</svg>
